<svg width="750" height="341" viewBox="0 0 750 341" fill="none" xmlns="http://www.w3.org/2000/svg">
<path d="M8.84956 255.75L0 272.911V341H750V148.911L742.257 152.232L732.854 149.464L721.792 151.125L713.496 148.357L694.69 150.018L685.841 145.589L676.991 151.679L667.589 161.643L658.739 153.893H648.783L639.934 150.018L631.084 161.643L621.128 167.179L612.279 125.107L603.429 148.911L593.473 150.018L585.73 142.821L575.774 192.089L566.925 198.179L556.969 193.75L548.673 183.786L539.27 188.768L530.42 150.571L521.018 127.875L502.766 160.536L493.916 141.161L484.513 138.393L475.664 115.696L466.261 122.893L457.412 107.946L448.009 125.661L439.159 97.9822L430.31 94.6607L420.907 115.696L412.058 111.821L402.655 85.8036L393.252 143.929L384.403 129.536L375 132.304L365.597 109.054L356.195 117.911L347.898 140.607L338.496 133.964L329.646 59.2321L319.69 49.2679L310.288 62L301.438 65.3214L292.589 54.25L283.186 62L274.336 43.1786L265.487 56.4643L255.531 101.304L247.235 35.9821L237.832 12.1786L228.429 45.9464L219.58 16.0536L210.177 45.9464L200.774 31L193.031 54.25L182.522 66.9821L174.226 47.6071L164.27 0L154.867 68.6429L146.018 114.036L137.168 90.7857L118.916 166.625L109.513 168.839L100.664 161.089L92.3673 169.393L82.4115 161.089L64.1593 68.6429L54.7566 203.161L45.9071 261.286L37.0575 266.821L28.208 264.054L17.6991 266.821L8.84956 255.75Z" fill="url(#paint0_linear_2005_254)"/>
<defs>
<linearGradient id="paint0_linear_2005_254" x1="375" y1="0" x2="375" y2="341" gradientUnits="userSpaceOnUse">
<stop stop-color="#E8E7FF"/>
<stop offset="1" stop-color="white" stop-opacity="0"/>
</linearGradient>
</defs>
</svg>
