<svg width="750" height="273" viewBox="0 0 750 273" fill="none" xmlns="http://www.w3.org/2000/svg">
<path d="M0 273L8.84956 255.834L17.6991 266.909L28.208 264.14L37.0575 266.909L45.9071 261.371L54.7566 203.227L64.1593 68.6653L82.4115 161.142L92.3673 169.448L100.664 161.142L109.513 168.895L118.916 166.68L137.168 90.8154L146.018 114.073L154.867 68.6653L164.27 0L174.226 47.6227L182.522 67.0041L193.031 54.2677L200.774 31.0101L210.177 45.9615L219.58 16.0588L228.429 45.9615L237.832 12.1826L247.235 35.9939L255.531 101.337L265.487 56.4828L274.336 43.1927L283.186 62.0203L292.589 54.2677L301.438 65.3428L310.288 62.0203L319.69 49.284L329.646 59.2515L338.496 134.008L347.898 140.653L356.195 117.949L365.597 109.089L375 132.347L384.403 129.578L393.252 143.976L402.655 85.8316L412.058 111.858L420.907 115.734L430.31 94.6917L439.159 98.0142L448.009 125.702L457.412 107.982L466.261 122.933L475.664 115.734L484.513 138.438L493.916 141.207L502.766 160.588L521.018 127.917L530.42 150.621L539.27 188.83L548.673 183.846L556.969 193.813L566.925 198.243L575.774 192.152L585.73 142.868L593.473 150.067L603.429 148.959L612.279 125.148L621.128 167.233L631.084 161.696L639.934 150.067L648.783 153.943H658.739L667.589 161.696L676.991 151.728L685.841 145.637L694.69 150.067L713.496 148.406L721.792 151.174L732.854 149.513L742.257 152.282L750 148.959" stroke="#4B40EE" stroke-width="2" stroke-linejoin="round"/>
</svg>
