<svg width="740" height="32" viewBox="0 0 740 32" fill="none" xmlns="http://www.w3.org/2000/svg">
<path d="M0 0.940491H2.6555V31.3361H0V0.940491Z" fill="#E6E8EB"/>
<path d="M6.19617 8.62567H8.85167V31.3361H6.19617V8.62567Z" fill="#E6E8EB"/>
<path d="M12.3923 26.713H15.0478V31.3361H12.3923V26.713Z" fill="#E6E8EB"/>
<path d="M18.5886 11.1431H21.2441V31.3361H18.5886V11.1431Z" fill="#E6E8EB"/>
<path d="M24.7847 25.7503H27.4402V31.3361H24.7847V25.7503Z" fill="#E6E8EB"/>
<path d="M30.9808 14.2716H33.6363V31.3361H30.9808V14.2716Z" fill="#E6E8EB"/>
<path d="M37.177 8.22034H39.8325V31.3361H37.177V8.22034Z" fill="#E6E8EB"/>
<path d="M43.3732 21.5293H46.0287V31.3361H43.3732V21.5293Z" fill="#E6E8EB"/>
<path d="M49.5693 14.0531H52.2248V31.3361H49.5693V14.0531Z" fill="#E6E8EB"/>
<path d="M55.7655 13.5148H58.421V31.3361H55.7655V13.5148Z" fill="#E6E8EB"/>
<path d="M61.9617 8.90747H64.6172V31.3361H61.9617V8.90747Z" fill="#E6E8EB"/>
<path d="M68.158 13.9265H70.8135V31.3361H68.158V13.9265Z" fill="#E6E8EB"/>
<path d="M74.354 14.8194H77.0095V31.3361H74.354V14.8194Z" fill="#E6E8EB"/>
<path d="M80.5502 18.2234H83.2057V31.3361H80.5502V18.2234Z" fill="#E6E8EB"/>
<path d="M86.7465 18.0334H89.402V31.3361H86.7465V18.0334Z" fill="#E6E8EB"/>
<path d="M92.9426 20.6427H95.5981V31.3361H92.9426V20.6427Z" fill="#E6E8EB"/>
<path d="M99.1388 19.1449H101.794V31.3361H99.1388V19.1449Z" fill="#E6E8EB"/>
<path d="M105.335 26.3741H107.99V31.3361H105.335V26.3741Z" fill="#E6E8EB"/>
<path d="M111.531 23.6351H114.187V31.3361H111.531V23.6351Z" fill="#E6E8EB"/>
<path d="M117.727 22.5964H120.383V31.3361H117.727V22.5964Z" fill="#E6E8EB"/>
<path d="M123.923 0H126.579V31.3361H123.923V0Z" fill="#E6E8EB"/>
<path d="M130.12 12.1785H132.775V31.3361H130.12V12.1785Z" fill="#E6E8EB"/>
<path d="M136.316 16.9885H138.971V31.3361H136.316V16.9885Z" fill="#E6E8EB"/>
<path d="M142.512 22.7991H145.167V31.3361H142.512V22.7991Z" fill="#E6E8EB"/>
<path d="M148.708 9.46478H151.364V31.3361H148.708V9.46478Z" fill="#E6E8EB"/>
<path d="M154.904 16.2792H157.56V31.3361H154.904V16.2792Z" fill="#E6E8EB"/>
<path d="M161.1 4.61047H163.756V31.3361H161.1V4.61047Z" fill="#E6E8EB"/>
<path d="M167.297 12.2957H169.952V31.3361H167.297V12.2957Z" fill="#E6E8EB"/>
<path d="M173.493 26.7699H176.148V31.3361H173.493V26.7699Z" fill="#E6E8EB"/>
<path d="M179.689 25.706H182.344V31.3361H179.689V25.706Z" fill="#E6E8EB"/>
<path d="M185.885 22.3653H188.541V31.3361H185.885V22.3653Z" fill="#E6E8EB"/>
<path d="M192.081 30.6458H194.737V31.3361H192.081V30.6458Z" fill="#E6E8EB"/>
<path d="M198.277 15.5984H200.933V31.3361H198.277V15.5984Z" fill="#E6E8EB"/>
<path d="M204.474 7.75171H207.129V31.3361H204.474V7.75171Z" fill="#E6E8EB"/>
<path d="M210.67 7.29889H213.325V31.3361H210.67V7.29889Z" fill="#E6E8EB"/>
<path d="M216.866 30.9973H219.522V31.3361H216.866V30.9973Z" fill="#E6E8EB"/>
<path d="M223.062 8.32483H225.718V31.3361H223.062V8.32483Z" fill="#E6E8EB"/>
<path d="M229.258 6.41858H231.914V31.3361H229.258V6.41858Z" fill="#E6E8EB"/>
<path d="M235.455 1.37744H238.11V31.3361H235.455V1.37744Z" fill="#E6E8EB"/>
<path d="M241.651 20.8738H244.306V31.3361H241.651V20.8738Z" fill="#E6E8EB"/>
<path d="M247.847 17.7042H250.502V31.3361H247.847V17.7042Z" fill="#E6E8EB"/>
<path d="M254.043 1.69727H256.699V31.3361H254.043V1.69727Z" fill="#E6E8EB"/>
<path d="M260.239 10.8771H262.895V31.3361H260.239V10.8771Z" fill="#E6E8EB"/>
<path d="M266.435 4.35083H269.091V31.3361H266.435V4.35083Z" fill="#E6E8EB"/>
<path d="M272.632 13.024H275.287V31.3361H272.632V13.024Z" fill="#E6E8EB"/>
<path d="M278.828 23.3659H281.483V31.3361H278.828V23.3659Z" fill="#E6E8EB"/>
<path d="M285.024 14.3666H287.679V31.3361H285.024V14.3666Z" fill="#E6E8EB"/>
<path d="M291.22 12.4603H293.876V31.3361H291.22V12.4603Z" fill="#E6E8EB"/>
<path d="M297.416 18.6066H300.072V31.3361H297.416V18.6066Z" fill="#E6E8EB"/>
<path d="M303.612 12.8182H306.268V31.3361H303.612V12.8182Z" fill="#E6E8EB"/>
<path d="M309.809 19.6199H312.464V31.3361H309.809V19.6199Z" fill="#E6E8EB"/>
<path d="M316.005 11.2412H318.66V31.3361H316.005V11.2412Z" fill="#E6E8EB"/>
<path d="M322.201 5.30078H324.856V31.3361H322.201V5.30078Z" fill="#E6E8EB"/>
<path d="M328.397 0.405334H331.053V31.3361H328.397V0.405334Z" fill="#E6E8EB"/>
<path d="M334.593 29.4235H337.249V31.3361H334.593V29.4235Z" fill="#E6E8EB"/>
<path d="M340.79 11.5294H343.445V31.3361H340.79V11.5294Z" fill="#E6E8EB"/>
<path d="M346.986 23.7332H349.641V31.3361H346.986V23.7332Z" fill="#E6E8EB"/>
<path d="M353.182 1.29193H355.837V31.3361H353.182V1.29193Z" fill="#E6E8EB"/>
<path d="M359.378 9.5946H362.033V31.3361H359.378V9.5946Z" fill="#E6E8EB"/>
<path d="M365.574 15.1107H368.23V31.3361H365.574V15.1107Z" fill="#E6E8EB"/>
<path d="M371.77 16.6528H374.426V31.3361H371.77V16.6528Z" fill="#E6E8EB"/>
<path d="M377.967 22.9067H380.622V31.3361H377.967V22.9067Z" fill="#E6E8EB"/>
<path d="M384.163 21.2095H386.818V31.3361H384.163V21.2095Z" fill="#E6E8EB"/>
<path d="M390.359 1.29828H393.014V31.3361H390.359V1.29828Z" fill="#E6E8EB"/>
<path d="M396.555 30.0505H399.21V31.3361H396.555V30.0505Z" fill="#E6E8EB"/>
<path d="M402.751 15.1329H405.407V31.3361H402.751V15.1329Z" fill="#E6E8EB"/>
<path d="M408.947 28.4007H411.603V31.3361H408.947V28.4007Z" fill="#E6E8EB"/>
<path d="M415.144 30.5603H417.799V31.3361H415.144V30.5603Z" fill="#E6E8EB"/>
<path d="M421.34 23.1823H423.995V31.3361H421.34V23.1823Z" fill="#E6E8EB"/>
<path d="M427.536 16.561H430.191V31.3361H427.536V16.561Z" fill="#E6E8EB"/>
<path d="M433.732 20.4622H436.388V31.3361H433.732V20.4622Z" fill="#E6E8EB"/>
<path d="M439.928 25.1455H442.584V31.3361H439.928V25.1455Z" fill="#E6E8EB"/>
<path d="M446.125 21.0733H448.78V31.3361H446.125V21.0733Z" fill="#E6E8EB"/>
<path d="M452.321 5.39899H454.976V31.3361H452.321V5.39899Z" fill="#E6E8EB"/>
<path d="M458.517 23.4894H461.172V31.3361H458.517V23.4894Z" fill="#E6E8EB"/>
<path d="M464.713 31.0226H467.368V31.3361H464.713V31.0226Z" fill="#E6E8EB"/>
<path d="M470.909 3.11273H473.565V31.3361H470.909V3.11273Z" fill="#E6E8EB"/>
<path d="M477.105 16.5198H479.761V31.3361H477.105V16.5198Z" fill="#E6E8EB"/>
<path d="M483.302 0.259644H485.957V31.3361H483.302V0.259644Z" fill="#E6E8EB"/>
<path d="M489.498 28.616H492.153V31.3361H489.498V28.616Z" fill="#E6E8EB"/>
<path d="M495.694 26.1271H498.349V31.3361H495.694V26.1271Z" fill="#E6E8EB"/>
<path d="M501.89 22.6471H504.545V31.3361H501.89V22.6471Z" fill="#E6E8EB"/>
<path d="M508.086 22.6756H510.742V31.3361H508.086V22.6756Z" fill="#E6E8EB"/>
<path d="M514.282 11.9664H516.938V31.3361H514.282V11.9664Z" fill="#E6E8EB"/>
<path d="M520.479 8.30267H523.134V31.3361H520.479V8.30267Z" fill="#E6E8EB"/>
<path d="M526.675 17.0107H529.33V31.3361H526.675V17.0107Z" fill="#E6E8EB"/>
<path d="M532.871 16.6085H535.526V31.3361H532.871V16.6085Z" fill="#E6E8EB"/>
<path d="M539.067 27.6091H541.722V31.3361H539.067V27.6091Z" fill="#E6E8EB"/>
<path d="M545.263 13.1664H547.919V31.3361H545.263V13.1664Z" fill="#E6E8EB"/>
<path d="M551.459 9.21149H554.115V31.3361H551.459V9.21149Z" fill="#E6E8EB"/>
<path d="M557.656 1.32043H560.311V31.3361H557.656V1.32043Z" fill="#E6E8EB"/>
<path d="M563.852 1.64972H566.507V31.336H563.852V1.64972Z" fill="#E6E8EB"/>
<path d="M570.048 5.13293H572.703V31.3361H570.048V5.13293Z" fill="#E6E8EB"/>
<path d="M576.244 24.262H578.9V31.3361H576.244V24.262Z" fill="#E6E8EB"/>
<path d="M582.44 5.72827H585.096V31.3361H582.44V5.72827Z" fill="#E6E8EB"/>
<path d="M588.636 13.1412H591.292V31.3361H588.636V13.1412Z" fill="#E6E8EB"/>
<path d="M594.833 1.40594H597.488V31.3361H594.833V1.40594Z" fill="#E6E8EB"/>
<path d="M601.029 21.1937H603.684V31.3361H601.029V21.1937Z" fill="#E6E8EB"/>
<path d="M607.225 17.5648H609.88V31.336H607.225V17.5648Z" fill="#E6E8EB"/>
<path d="M613.421 30.4399H616.076V31.3361H613.421V30.4399Z" fill="#E6E8EB"/>
<path d="M619.617 27.6978H622.273V31.3361H619.617V27.6978Z" fill="#E6E8EB"/>
<path d="M625.813 30.8295H628.469V31.3361H625.813V30.8295Z" fill="#E6E8EB"/>
<path d="M632.01 12.5047H634.665V31.3361H632.01V12.5047Z" fill="#E6E8EB"/>
<path d="M638.206 3.651H640.861V31.3361H638.206V3.651Z" fill="#E6E8EB"/>
<path d="M644.402 13.5654H647.057V31.3361H644.402V13.5654Z" fill="#E6E8EB"/>
<path d="M650.598 15.4464H653.254V31.3361H650.598V15.4464Z" fill="#E6E8EB"/>
<path d="M656.794 17.378H659.45V31.3361H656.794V17.378Z" fill="#E6E8EB"/>
<path d="M662.99 20.079H665.646V31.3361H662.99V20.079Z" fill="#E6E8EB"/>
<path d="M669.187 1.99805H671.842V31.3361H669.187V1.99805Z" fill="#E6E8EB"/>
<path d="M675.383 21.751H678.038V31.3361H675.383V21.751Z" fill="#E6E8EB"/>
<path d="M681.579 17.9891H684.234V31.336H681.579V17.9891Z" fill="#E6E8EB"/>
<path d="M687.775 26.9504H690.431V31.3361H687.775V26.9504Z" fill="#E6E8EB"/>
<path d="M693.971 12.6788H696.627V31.3361H693.971V12.6788Z" fill="#E6E8EB"/>
<path d="M700.167 0.25647H702.823V31.3361H700.167V0.25647Z" fill="#E6E8EB"/>
<path d="M706.364 16.7795H709.019V31.3361H706.364V16.7795Z" fill="#E6E8EB"/>
<path d="M712.56 3.42303H715.215V31.3361H712.56V3.42303Z" fill="#E6E8EB"/>
<path d="M718.756 3.02722H721.411V31.3361H718.756V3.02722Z" fill="#E6E8EB"/>
<path d="M724.952 17.9702H727.608V31.3361H724.952V17.9702Z" fill="#E6E8EB"/>
<path d="M731.148 9.64209H733.804V31.3361H731.148V9.64209Z" fill="#E6E8EB"/>
<path d="M737.344 1.03857H740V31.336H737.344V1.03857Z" fill="#E6E8EB"/>
</svg>
